# Blender v3.2.0 OBJ File: 'maru.blend'
# www.blender.org
mtllib maru.mtl
o 円柱
v 0.000000 -0.102262 -1.000000
v -0.000000 0.102262 -1.000000
v 0.000806 -0.017275 -0.778016
v 0.195090 -0.102262 -0.980785
v 0.195090 0.102262 -0.980785
v 0.152590 -0.017275 -0.763067
v 0.382683 -0.102262 -0.923880
v 0.382683 0.102262 -0.923880
v 0.298540 -0.017275 -0.718793
v 0.555570 -0.102262 -0.831470
v 0.555570 0.102262 -0.831470
v 0.433049 -0.017275 -0.646897
v 0.707107 -0.102262 -0.707107
v 0.707107 0.102262 -0.707107
v 0.550947 -0.017275 -0.550140
v 0.831470 -0.102262 -0.555570
v 0.831470 0.102262 -0.555570
v 0.647703 -0.017275 -0.432242
v 0.923880 -0.102262 -0.382683
v 0.923880 0.102262 -0.382683
v 0.719599 -0.017275 -0.297734
v 0.980785 -0.102262 -0.195090
v 0.980785 0.102262 -0.195090
v 0.763873 -0.017275 -0.151783
v 1.000000 -0.102262 0.000000
v 1.000000 0.102262 0.000000
v 0.778822 -0.017275 0.000000
v 0.980785 -0.102262 0.195090
v 0.980785 0.102262 0.195090
v 0.763873 -0.017275 0.151783
v 0.923880 -0.102262 0.382683
v 0.923880 0.102262 0.382683
v 0.719599 -0.017275 0.297734
v 0.831470 -0.102262 0.555570
v 0.831470 0.102262 0.555570
v 0.647703 -0.017275 0.432242
v 0.707107 -0.102262 0.707107
v 0.550947 -0.017275 0.550140
v 0.707107 0.102262 0.707107
v 0.555570 -0.102262 0.831470
v 0.555570 0.102262 0.831470
v 0.433049 -0.017275 0.646897
v 0.382683 -0.102262 0.923880
v 0.382683 0.102262 0.923880
v 0.298540 -0.017275 0.718793
v 0.195090 -0.102262 0.980785
v 0.195090 0.102262 0.980785
v 0.152590 -0.017275 0.763067
v -0.000000 -0.102262 1.000000
v -0.000000 0.102262 1.000000
v 0.000806 -0.017275 0.778016
v -0.195090 -0.102262 0.980785
v -0.195090 0.102262 0.980785
v -0.150977 -0.017275 0.763066
v -0.382683 -0.102262 0.923880
v -0.382683 0.102262 0.923879
v -0.296928 -0.017275 0.718793
v -0.555570 -0.102262 0.831470
v -0.555570 0.102262 0.831470
v -0.431436 -0.017275 0.646897
v -0.707107 -0.102262 0.707107
v -0.707107 0.102262 0.707107
v -0.549334 -0.017275 0.550140
v -0.831469 -0.102262 0.555570
v -0.831470 0.102262 0.555570
v -0.646090 -0.017275 0.432243
v -0.923879 -0.102262 0.382684
v -0.923880 0.102262 0.382684
v -0.717987 -0.017275 0.297734
v -0.980785 -0.102262 0.195090
v -0.980785 0.102262 0.195090
v -0.762260 -0.017275 0.151783
v -1.000000 -0.102262 -0.000000
v -1.000000 0.102262 -0.000000
v -0.777210 -0.017275 -0.000000
v -0.980785 -0.102262 -0.195090
v -0.980785 0.102262 -0.195090
v -0.762260 -0.017275 -0.151783
v -0.923879 -0.102262 -0.382684
v -0.923879 0.102262 -0.382684
v -0.717987 -0.017275 -0.297734
v -0.831470 -0.102262 -0.555570
v -0.831470 0.102262 -0.555570
v -0.646091 -0.017275 -0.432242
v -0.707107 -0.102262 -0.707107
v -0.707107 0.102262 -0.707107
v -0.549334 -0.017275 -0.550140
v -0.555570 -0.102262 -0.831470
v -0.555570 0.102262 -0.831470
v -0.431436 -0.017275 -0.646897
v -0.382683 -0.102262 -0.923880
v -0.382683 0.102262 -0.923879
v -0.296928 -0.017275 -0.718793
v -0.195090 -0.102262 -0.980785
v -0.150977 -0.017275 -0.763066
v -0.195090 0.102262 -0.980785
v -0.549334 0.102262 -0.550140
v -0.431436 0.102262 -0.646897
v 0.000806 0.102262 -0.778016
v -0.150977 0.102262 -0.763067
v -0.296928 0.102262 -0.718793
v -0.777210 0.102262 -0.000000
v -0.762260 0.102262 0.151783
v -0.549334 0.102262 0.550140
v -0.646090 0.102262 0.432243
v -0.717987 0.102262 0.297734
v 0.000806 0.102262 0.778016
v 0.152590 0.102262 0.763067
v 0.433049 0.102262 0.646897
v 0.550947 0.102262 0.550140
v 0.298540 0.102262 0.718793
v 0.550947 0.102262 -0.550140
v 0.647703 0.102262 -0.432243
v 0.763873 0.102262 -0.151783
v 0.778822 0.102262 0.000000
v 0.719599 0.102262 -0.297734
v -0.762260 0.102262 -0.151783
v -0.646091 0.102262 -0.432242
v -0.717987 0.102262 -0.297734
v -0.431436 0.102262 0.646897
v 0.152590 0.102262 -0.763067
v -0.296928 0.102262 0.718793
v -0.150977 0.102262 0.763067
v 0.433049 0.102262 -0.646897
v 0.298540 0.102262 -0.718793
v 0.647703 0.102262 0.432243
v 0.719599 0.102262 0.297734
v 0.763873 0.102262 0.151783
v 0.152590 -0.102262 -0.763066
v 0.298540 -0.102262 -0.718793
v 0.550947 -0.102262 -0.550140
v 0.647703 -0.102262 -0.432243
v 0.433049 -0.102262 -0.646897
v 0.433049 -0.102262 0.646897
v 0.550947 -0.102262 0.550140
v 0.719599 -0.102262 0.297734
v 0.763873 -0.102262 0.151783
v 0.647703 -0.102262 0.432242
v -0.646090 -0.102262 0.432243
v -0.549334 -0.102262 0.550140
v -0.150977 -0.102262 0.763067
v -0.296928 -0.102262 0.718793
v -0.431436 -0.102262 0.646897
v -0.717987 -0.102262 -0.297734
v -0.762260 -0.102262 -0.151783
v -0.431436 -0.102262 -0.646897
v -0.549334 -0.102262 -0.550140
v -0.646091 -0.102262 -0.432242
v -0.150977 -0.102262 -0.763067
v 0.000806 -0.102262 -0.778016
v 0.298540 -0.102262 0.718793
v 0.152590 -0.102262 0.763067
v 0.719599 -0.102262 -0.297734
v 0.778822 -0.102262 0.000000
v 0.763873 -0.102262 -0.151783
v -0.777210 -0.102262 -0.000000
v -0.717987 -0.102262 0.297734
v -0.762260 -0.102262 0.151783
v -0.296928 -0.102262 -0.718793
v 0.000806 -0.102262 0.778016
vt 1.000000 0.500000
vt 1.000000 1.000000
vt 0.968750 1.000000
vt 0.968750 0.500000
vt 0.937500 1.000000
vt 0.937500 0.500000
vt 0.906250 1.000000
vt 0.906250 0.500000
vt 0.875000 1.000000
vt 0.875000 0.500000
vt 0.843750 1.000000
vt 0.843750 0.500000
vt 0.812500 1.000000
vt 0.812500 0.500000
vt 0.781250 1.000000
vt 0.781250 0.500000
vt 0.750000 1.000000
vt 0.750000 0.500000
vt 0.718750 1.000000
vt 0.718750 0.500000
vt 0.687500 1.000000
vt 0.687500 0.500000
vt 0.656250 1.000000
vt 0.656250 0.500000
vt 0.625000 1.000000
vt 0.625000 0.500000
vt 0.593750 1.000000
vt 0.593750 0.500000
vt 0.562500 1.000000
vt 0.562500 0.500000
vt 0.531250 1.000000
vt 0.531250 0.500000
vt 0.500000 1.000000
vt 0.500000 0.500000
vt 0.468750 1.000000
vt 0.468750 0.500000
vt 0.437500 1.000000
vt 0.437500 0.500000
vt 0.406250 1.000000
vt 0.406250 0.500000
vt 0.375000 1.000000
vt 0.375000 0.500000
vt 0.343750 1.000000
vt 0.343750 0.500000
vt 0.312500 1.000000
vt 0.312500 0.500000
vt 0.281250 1.000000
vt 0.281250 0.500000
vt 0.250000 1.000000
vt 0.250000 0.500000
vt 0.218750 1.000000
vt 0.218750 0.500000
vt 0.187500 1.000000
vt 0.187500 0.500000
vt 0.156250 1.000000
vt 0.156250 0.500000
vt 0.125000 1.000000
vt 0.125000 0.500000
vt 0.093750 1.000000
vt 0.093750 0.500000
vt 0.062500 1.000000
vt 0.062500 0.500000
vt 0.422704 0.321456
vt 0.471731 0.341844
vt 0.449553 0.383337
vt 0.419706 0.419706
vt 0.383337 0.449553
vt 0.341844 0.471731
vt 0.296822 0.485388
vt 0.250000 0.490000
vt 0.203178 0.485388
vt 0.158156 0.471731
vt 0.116663 0.449553
vt 0.080294 0.419706
vt 0.050447 0.383337
vt 0.028269 0.341844
vt 0.014612 0.296822
vt 0.010000 0.250000
vt 0.014612 0.203178
vt 0.028269 0.158156
vt 0.050447 0.116663
vt 0.080294 0.080294
vt 0.116663 0.050447
vt 0.158156 0.028269
vt 0.203178 0.014612
vt 0.250000 0.010000
vt 0.296822 0.014612
vt 0.341844 0.028269
vt 0.383337 0.050447
vt 0.419706 0.080294
vt 0.449553 0.116663
vt 0.471731 0.158156
vt 0.422704 0.178544
vt 0.405449 0.146262
vt 0.382227 0.117966
vt 0.353932 0.094745
vt 0.321650 0.077490
vt 0.286622 0.066864
vt 0.250193 0.063276
vt 0.213766 0.066864
vt 0.178737 0.077490
vt 0.146455 0.094745
vt 0.118160 0.117966
vt 0.094938 0.146262
vt 0.077683 0.178544
vt 0.067058 0.213572
vt 0.063470 0.250000
vt 0.067057 0.286428
vt 0.077683 0.321456
vt 0.094938 0.353738
vt 0.118160 0.382034
vt 0.146455 0.405255
vt 0.178737 0.422510
vt 0.213766 0.433136
vt 0.250194 0.436724
vt 0.286622 0.433136
vt 0.321650 0.422510
vt 0.353932 0.405255
vt 0.382227 0.382034
vt 0.405449 0.353738
vt 0.485388 0.203178
vt 0.490000 0.250000
vt 0.485388 0.296822
vt 0.433329 0.286428
vt 0.436917 0.250000
vt 0.433329 0.213572
vt 0.031250 1.000000
vt 0.031250 0.500000
vt 0.000000 1.000000
vt 0.000000 0.500000
vt 0.905448 0.146262
vt 0.949553 0.116663
vt 0.919706 0.080294
vt 0.883337 0.050447
vt 0.841844 0.028269
vt 0.796822 0.014612
vt 0.750000 0.010000
vt 0.703178 0.014612
vt 0.658156 0.028269
vt 0.616663 0.050447
vt 0.580294 0.080294
vt 0.550447 0.116663
vt 0.528269 0.158156
vt 0.514612 0.203178
vt 0.510000 0.250000
vt 0.514612 0.296822
vt 0.528269 0.341844
vt 0.550447 0.383337
vt 0.580294 0.419706
vt 0.616663 0.449553
vt 0.658156 0.471731
vt 0.703178 0.485388
vt 0.750000 0.490000
vt 0.796822 0.485388
vt 0.841844 0.471731
vt 0.883337 0.449553
vt 0.919706 0.419706
vt 0.949553 0.383337
vt 0.971731 0.341844
vt 0.985388 0.296822
vt 0.933329 0.286428
vt 0.922704 0.321456
vt 0.905448 0.353738
vt 0.882227 0.382034
vt 0.853932 0.405255
vt 0.821649 0.422510
vt 0.786622 0.433136
vt 0.750193 0.436724
vt 0.713766 0.433136
vt 0.678737 0.422510
vt 0.646455 0.405255
vt 0.618160 0.382034
vt 0.594938 0.353738
vt 0.577683 0.321456
vt 0.567058 0.286428
vt 0.563470 0.250000
vt 0.567058 0.213572
vt 0.577683 0.178544
vt 0.594938 0.146262
vt 0.618160 0.117966
vt 0.646455 0.094745
vt 0.678737 0.077490
vt 0.713765 0.066864
vt 0.750193 0.063276
vt 0.786621 0.066864
vt 0.821650 0.077490
vt 0.853932 0.094745
vt 0.882227 0.117966
vt 0.990000 0.250000
vt 0.985388 0.203178
vt 0.971731 0.158156
vt 0.922704 0.178544
vt 0.933329 0.213572
vt 0.936918 0.250000
vt 0.968750 0.732951
vt 0.968750 1.000000
vt 1.000000 1.000000
vt 1.000000 0.732951
vt 0.937500 0.732951
vt 0.937500 1.000000
vt 0.906250 0.732951
vt 0.906250 1.000000
vt 0.875000 0.732951
vt 0.875000 1.000000
vt 0.843750 0.732951
vt 0.843750 1.000000
vt 0.812500 0.732951
vt 0.812500 1.000000
vt 0.781250 0.732951
vt 0.781250 1.000000
vt 0.750000 0.732951
vt 0.750000 1.000000
vt 0.718750 1.000000
vt 0.718750 0.732951
vt 0.687500 0.732951
vt 0.687500 1.000000
vt 0.656250 0.732951
vt 0.656250 1.000000
vt 0.625000 0.732951
vt 0.625000 1.000000
vt 0.593750 0.732951
vt 0.593750 1.000000
vt 0.562500 0.732951
vt 0.562500 1.000000
vt 0.531250 0.732951
vt 0.531250 1.000000
vt 0.500000 0.732951
vt 0.500000 1.000000
vt 0.468750 1.000000
vt 0.468750 0.732951
vt 0.437500 0.732951
vt 0.437500 1.000000
vt 0.406250 0.732951
vt 0.406250 1.000000
vt 0.375000 0.732951
vt 0.375000 1.000000
vt 0.343750 0.732951
vt 0.343750 1.000000
vt 0.312500 0.732951
vt 0.312500 1.000000
vt 0.281250 0.732951
vt 0.281250 1.000000
vt 0.250000 0.732951
vt 0.250000 1.000000
vt 0.218750 0.732951
vt 0.218750 1.000000
vt 0.187500 0.732951
vt 0.187500 1.000000
vt 0.156250 0.732951
vt 0.156250 1.000000
vt 0.125000 0.732951
vt 0.125000 1.000000
vt 0.093750 0.732951
vt 0.093750 1.000000
vt 0.062500 0.732951
vt 0.062500 1.000000
vt 0.937500 1.000000
vt 0.906250 1.000000
vt 0.031250 0.732951
vt 0.031250 1.000000
vt 0.000000 0.732951
vt 0.000000 1.000000
vt 0.625000 1.000000
vt 0.656250 1.000000
vt 0.375000 1.000000
vt 0.343750 1.000000
vt 0.093750 1.000000
vt 0.062500 1.000000
vt 0.750000 1.000000
vt 0.781250 1.000000
vt 0.468750 1.000000
vt 0.500000 1.000000
vt 0.218750 1.000000
vt 0.187500 1.000000
vt 0.875000 1.000000
vt 0.593750 1.000000
vt 0.312500 1.000000
vt 0.031250 1.000000
vt 0.718750 1.000000
vt 0.437500 1.000000
vt 0.156250 1.000000
vt 0.843750 1.000000
vt 0.562500 1.000000
vt 0.281250 1.000000
vt 1.000000 1.000000
vt 0.968750 1.000000
vt 0.000000 1.000000
vt 0.687500 1.000000
vt 0.406250 1.000000
vt 0.125000 1.000000
vt 0.812500 1.000000
vt 0.531250 1.000000
vt 0.250000 1.000000
vn 0.0000 -0.6857 -0.7279
vn 0.0000 0.6857 -0.7279
vn 0.1420 0.6857 -0.7139
vn 0.1420 -0.6857 -0.7139
vn 0.2786 0.6857 -0.6725
vn 0.2786 -0.6857 -0.6725
vn 0.4044 0.6857 -0.6052
vn 0.4044 -0.6857 -0.6052
vn 0.5147 0.6857 -0.5147
vn 0.5147 -0.6857 -0.5147
vn 0.6052 0.6857 -0.4044
vn 0.6052 -0.6857 -0.4044
vn 0.6725 0.6857 -0.2786
vn 0.6725 -0.6857 -0.2786
vn 0.7139 0.6857 -0.1420
vn 0.7139 -0.6857 -0.1420
vn 0.7279 0.6857 0.0000
vn 0.7279 -0.6857 0.0000
vn 0.7139 0.6857 0.1420
vn 0.7139 -0.6857 0.1420
vn 0.6725 0.6857 0.2786
vn 0.6725 -0.6857 0.2786
vn 0.6052 0.6857 0.4044
vn 0.6052 -0.6857 0.4044
vn 0.5147 0.6857 0.5147
vn 0.5147 -0.6857 0.5147
vn 0.4044 0.6857 0.6052
vn 0.4044 -0.6857 0.6052
vn 0.2786 0.6857 0.6725
vn 0.2786 -0.6857 0.6725
vn 0.1420 0.6857 0.7139
vn 0.1420 -0.6857 0.7139
vn 0.0000 0.6857 0.7279
vn 0.0000 -0.6857 0.7279
vn -0.1420 0.6857 0.7139
vn -0.1420 -0.6857 0.7139
vn -0.2786 0.6857 0.6725
vn -0.2786 -0.6857 0.6725
vn -0.4044 0.6857 0.6052
vn -0.4044 -0.6857 0.6052
vn -0.5147 0.6857 0.5147
vn -0.5147 -0.6857 0.5147
vn -0.6052 0.6857 0.4044
vn -0.6052 -0.6857 0.4044
vn -0.6725 0.6857 0.2786
vn -0.6725 -0.6857 0.2786
vn -0.7139 0.6857 0.1420
vn -0.7139 -0.6857 0.1420
vn -0.7279 0.6857 0.0000
vn -0.7279 -0.6857 -0.0000
vn -0.7139 0.6857 -0.1420
vn -0.7139 -0.6857 -0.1420
vn -0.6725 0.6857 -0.2786
vn -0.6725 -0.6857 -0.2786
vn -0.6052 0.6857 -0.4044
vn -0.6052 -0.6857 -0.4044
vn -0.5147 0.6857 -0.5147
vn -0.5147 -0.6857 -0.5147
vn -0.4044 0.6857 -0.6052
vn -0.4044 -0.6857 -0.6052
vn -0.2786 0.6857 -0.6725
vn -0.2786 -0.6857 -0.6725
vn -0.6316 0.7298 0.2616
vn -0.1420 0.6857 -0.7139
vn -0.6316 0.7298 -0.2616
vn -0.1420 -0.6857 -0.7139
vn -0.5684 -0.7298 -0.3798
vn -0.6705 -0.7298 0.1334
vn -0.1951 0.0000 0.9808
vn 0.0000 0.0000 1.0000
vn -0.3827 0.0000 0.9239
vn -0.5556 0.0000 0.8315
vn -0.7071 0.0000 0.7071
vn -0.8315 -0.0000 0.5556
vn -0.9239 0.0000 0.3827
vn -0.9808 0.0000 0.1951
vn -1.0000 0.0000 -0.0000
vn -0.9808 0.0000 -0.1951
vn -0.9239 0.0000 -0.3827
vn -0.8315 0.0000 -0.5556
vn -0.7071 0.0000 -0.7071
vn -0.5556 0.0000 -0.8315
vn -0.3827 0.0000 -0.9239
vn -0.1951 -0.0000 -0.9808
vn 0.0000 -0.0000 -1.0000
vn 0.1951 -0.0000 -0.9808
vn 0.3827 -0.0000 -0.9239
vn 0.5556 -0.0000 -0.8315
vn 0.7071 -0.0000 -0.7071
vn 0.8315 -0.0000 -0.5556
vn 0.9239 -0.0000 -0.3827
vn 0.9808 -0.0000 -0.1951
vn 1.0000 -0.0000 -0.0000
vn 0.9808 -0.0000 0.1951
vn 0.9239 0.0000 0.3827
vn 0.8315 0.0000 0.5556
vn 0.7071 -0.0000 0.7071
vn 0.5556 -0.0000 0.8315
vn 0.3827 -0.0000 0.9239
vn 0.1951 -0.0000 0.9808
usemtl Material.001
s 1
f 1/1/1 2/2/2 5/3/3 4/4/4
f 4/4/4 5/3/3 8/5/5 7/6/6
f 7/6/6 8/5/5 11/7/7 10/8/8
f 10/8/8 11/7/7 14/9/9 13/10/10
f 13/10/10 14/9/9 17/11/11 16/12/12
f 16/12/12 17/11/11 20/13/13 19/14/14
f 19/14/14 20/13/13 23/15/15 22/16/16
f 22/16/16 23/15/15 26/17/17 25/18/18
f 25/18/18 26/17/17 29/19/19 28/20/20
f 28/20/20 29/19/19 32/21/21 31/22/22
f 31/22/22 32/21/21 35/23/23 34/24/24
f 34/24/24 35/23/23 39/25/25 37/26/26
f 37/26/26 39/25/25 41/27/27 40/28/28
f 40/28/28 41/27/27 44/29/29 43/30/30
f 43/30/30 44/29/29 47/31/31 46/32/32
f 46/32/32 47/31/31 50/33/33 49/34/34
f 49/34/34 50/33/33 53/35/35 52/36/36
f 52/36/36 53/35/35 56/37/37 55/38/38
f 55/38/38 56/37/37 59/39/39 58/40/40
f 58/40/40 59/39/39 62/41/41 61/42/42
f 61/42/42 62/41/41 65/43/43 64/44/44
f 64/44/44 65/43/43 68/45/45 67/46/46
f 67/46/46 68/45/45 71/47/47 70/48/48
f 70/48/48 71/47/47 74/49/49 73/50/50
f 73/50/50 74/49/49 77/51/51 76/52/52
f 76/52/52 77/51/51 80/53/53 79/54/54
f 79/54/54 80/53/53 83/55/55 82/56/56
f 82/56/56 83/55/55 86/57/57 85/58/58
f 85/58/58 86/57/57 89/59/59 88/60/60
f 88/60/60 89/59/59 92/61/61 91/62/62
f 116/63/63 20/64/13 17/65/11 14/66/9 11/67/7 8/68/5 5/69/3 2/70/2 96/71/64 92/72/61 89/73/59 86/74/57 83/75/55 80/76/53 77/77/51 74/78/49 71/79/47 68/80/45 65/81/43 62/82/41 59/83/39 56/84/37 53/85/35 50/86/33 47/87/31 44/88/29 41/89/27 39/90/25 35/91/23 32/92/21 127/93/65 126/94/55 110/95/57 109/96/59 111/97/61 108/98/64 107/99/2 123/100/3 122/101/5 120/102/7 104/103/9 105/104/11 106/105/13 103/106/15 102/107/17 117/108/19 119/109/21 118/110/23 97/111/25 98/112/27 101/113/29 100/114/31 99/115/33 121/116/35 125/117/37 124/118/39 112/119/41 113/120/43
f 127/93/65 32/92/21 29/121/19 26/122/17 23/123/15 20/64/13 116/63/63 114/124/47 115/125/49 128/126/51
f 91/62/62 92/61/61 96/127/64 94/128/66
f 94/128/66 96/127/64 2/129/2 1/130/1
f 138/131/67 34/132/24 37/133/26 40/134/28 43/135/30 46/136/32 49/137/34 52/138/36 55/139/38 58/140/40 61/141/42 64/142/44 67/143/46 70/144/48 73/145/50 76/146/52 79/147/54 82/148/56 85/149/58 88/150/60 91/151/62 94/152/66 1/153/1 4/154/4 7/155/6 10/156/8 13/157/10 16/158/12 19/159/14 22/160/16 155/161/68 153/162/46 132/163/44 131/164/42 133/165/40 130/166/38 129/167/36 150/168/34 149/169/32 159/170/30 146/171/28 147/172/26 148/173/24 144/174/22 145/175/20 156/176/18 158/177/16 157/178/14 139/179/12 140/180/10 143/181/8 142/182/6 141/183/4 160/184/1 152/185/66 151/186/62 134/187/60 135/188/58
f 155/161/68 22/160/16 25/189/18 28/190/20 31/191/22 34/132/24 138/131/67 136/192/54 137/193/52 154/194/50
f 129/195/36 6/196/69 3/197/70 150/198/34
f 130/199/38 9/200/71 6/196/69 129/195/36
f 133/201/40 12/202/72 9/200/71 130/199/38
f 131/203/42 15/204/73 12/202/72 133/201/40
f 132/205/44 18/206/74 15/204/73 131/203/42
f 153/207/46 21/208/75 18/206/74 132/205/44
f 155/209/68 24/210/76 21/208/75 153/207/46
f 154/211/50 27/212/77 24/210/76 155/209/68
f 30/213/78 27/212/77 154/211/50 137/214/52
f 136/215/54 33/216/79 30/213/78 137/214/52
f 138/217/67 36/218/80 33/216/79 136/215/54
f 135/219/58 38/220/81 36/218/80 138/217/67
f 134/221/60 42/222/82 38/220/81 135/219/58
f 151/223/62 45/224/83 42/222/82 134/221/60
f 152/225/66 48/226/84 45/224/83 151/223/62
f 160/227/1 51/228/85 48/226/84 152/225/66
f 54/229/86 51/228/85 160/227/1 141/230/4
f 142/231/6 57/232/87 54/229/86 141/230/4
f 143/233/8 60/234/88 57/232/87 142/231/6
f 140/235/10 63/236/89 60/234/88 143/233/8
f 139/237/12 66/238/90 63/236/89 140/235/10
f 157/239/14 69/240/91 66/238/90 139/237/12
f 158/241/16 72/242/92 69/240/91 157/239/14
f 156/243/18 75/244/93 72/242/92 158/241/16
f 145/245/20 78/246/94 75/244/93 156/243/18
f 144/247/22 81/248/95 78/246/94 145/245/20
f 148/249/24 84/250/96 81/248/95 144/247/22
f 147/251/26 87/252/97 84/250/96 148/249/24
f 146/253/28 90/254/98 87/252/97 147/251/26
f 159/255/30 93/256/99 90/254/98 146/253/28
f 125/257/37 9/200/71 12/202/72 124/258/39
f 149/259/32 95/260/100 93/256/99 159/255/30
f 150/261/34 3/262/70 95/260/100 149/259/32
f 36/218/80 38/220/81 110/263/57 126/264/55
f 104/265/9 63/236/89 66/238/90 105/266/11
f 98/267/27 90/254/98 93/256/99 101/268/29
f 24/210/76 27/212/77 115/269/49 114/270/47
f 51/228/85 54/229/86 123/271/3 107/272/2
f 117/273/19 78/246/94 81/248/95 119/274/21
f 124/258/39 12/202/72 15/204/73 112/275/41
f 38/220/81 42/222/82 109/276/59 110/263/57
f 105/266/11 66/238/90 69/240/91 106/277/13
f 101/268/29 93/256/99 95/260/100 100/278/31
f 27/212/77 30/213/78 128/279/51 115/269/49
f 54/229/86 57/232/87 122/280/5 123/271/3
f 119/274/21 81/248/95 84/250/96 118/281/23
f 15/204/73 18/206/74 113/282/43 112/275/41
f 42/222/82 45/224/83 111/283/61 109/276/59
f 106/277/13 69/240/91 72/242/92 103/284/15
f 99/285/33 3/197/70 6/196/69 121/286/35
f 100/278/31 95/260/100 3/262/70 99/287/33
f 30/213/78 33/216/79 127/288/65 128/279/51
f 57/232/87 60/234/88 120/289/7 122/280/5
f 118/281/23 84/250/96 87/252/97 97/290/25
f 18/206/74 21/208/75 116/291/63 113/282/43
f 45/224/83 48/226/84 108/292/64 111/283/61
f 103/284/15 72/242/92 75/244/93 102/293/17
f 121/286/35 6/196/69 9/200/71 125/257/37
f 33/216/79 36/218/80 126/264/55 127/288/65
f 60/234/88 63/236/89 104/265/9 120/289/7
f 97/290/25 87/252/97 90/254/98 98/267/27
f 21/208/75 24/210/76 114/270/47 116/291/63
f 48/226/84 51/228/85 107/272/2 108/292/64
f 102/293/17 75/244/93 78/246/94 117/273/19
